{"title":"Billie Holiday The Life and Artistry of Lady Day","uid":8515904,"size":366382725,"categoryP":"video","categoryS":"music_videos","magnet":"?xt=urn:btih:499f00c97d85b14dedbeaf87b86efd2c2448a961&amp;dn=Billie+Holiday+The+Life+and+Artistry+of+Lady+Day&amp;tr=udp%3A%2F%2Ftracker.openbittorrent.com%3A80&amp;tr=udp%3A%2F%2Fopen.demonii.com%3A1337&amp;tr=udp%3A%2F%2Ftracker.coppersurfer.tk%3A6969&amp;tr=udp%3A%2F%2Fexodus.desync.com%3A6969","seeders":1,"leechers":0,"uploader":null,"files":3,"time":1369730567,"description":"Billie Holiday: The Life &amp; Artistry of Lady Day is a half-hour biography that uses film clips, archival footage, still press photos, and vintage promotional materials to highlight the major events in the singer's career. The documentary chronicles her battles with drug addiction, criminal activity, and abusive relationships, but also contains live performance footage of Holiday singing &quot;God Bless the Child,&quot; &quot;Strange Fruit,&quot; and &quot;What a Little Moonlight Can Do.&quot; ~ Andrea LeVasseur, Rovi \n\n\nFormat                           : Matroska\nFormat version                   : Version 2\nFile size                        : 349 MiB\nDuration                         : 27mn 52s\nOverall bit rate                 : 1 753 Kbps\nEncoded date                     : UTC 2013-05-28 07:36:48\nWriting application              : mkvmerge v6.1.0 ('Old Devil') built on Mar  2 2013 14:32:37\nWriting library                  : libebml v1.3.0 + libmatroska v1.4.0\n\nVideo\nID                               : 1\nFormat                           : AVC\nFormat/Info                      : Advanced Video Codec\nFormat profile                   : &lt;a class=&quot;__cf_email__&quot; href=&quot;/cdn-cgi/l/email-protection&quot; data-cfemail=&quot;5911303e3119156a7769&quot;&gt;[email&amp;#160;protected]&lt;/a&gt;&lt;script cf-hash='f9e31' type=&quot;text/javascript&quot;&gt;\n/* &lt;![CDATA[ */!function(){try{var t=&quot;currentScript&quot;in document?document.currentScript:function(){for(var t=document.getElementsByTagName(&quot;script&quot;),e=t.length;e--;)if(t[e].getAttribute(&quot;cf-hash&quot;))return t[e]}();if(t&amp;&amp;t.previousSibling){var e,r,n,i,c=t.previousSibling,a=c.getAttribute(&quot;data-cfemail&quot;);if(a){for(e=&quot;&quot;,r=parseInt(a.substr(0,2),16),n=2;a.length-n;n+=2)i=parseInt(a.substr(n,2),16)^r,e+=String.fromCharCode(i);e=document.createTextNode(e),c.parentNode.replaceChild(e,c)}}}catch(u){}}();/* ]]&gt; */&lt;/script&gt;\nFormat settings, CABAC           : Yes\nFormat settings, ReFrames        : 4 frames\nCodec ID                         : V_MPEG4/ISO/AVC\nDuration                         : 27mn 52s\nBit rate                         : 1 559 Kbps\nWidth                            : 688 pixels\nHeight                           : 512 pixels\nDisplay aspect ratio             : 4:3\nFrame rate                       : 25.000 fps\nColor space                      : YUV\nChroma subsampling               : 4:2:0\nBit depth                        : 8 bits\nScan type                        : Progressive\nBits/(Pixel*Frame)               : 0.177\nStream size                      : 304 MiB (87%)\nWriting library                  : x264 core 130 r2273 b3065e6\n\nAudio\nID                               : 2\nFormat                           : AC-3\nFormat/Info                      : Audio Coding 3\nMode extension                   : CM (complete main)\nCodec ID                         : A_AC3\nDuration                         : 27mn 52s\nBit rate mode                    : Constant\nBit rate                         : 192 Kbps\nChannel(s)                       : 2 channels\nChannel positions                : Front: L R\nSampling rate                    : 48.0 KHz\nBit depth                        : 16 bits\nCompression mode                 : Lossy\nStream size                      : 38.3 MiB (11%)\n\n","torrent":{"xt":"urn:btih:499f00c97d85b14dedbeaf87b86efd2c2448a961","amp;dn":"Billie+Holiday+The+Life+and+Artistry+of+Lady+Day","amp;tr":["udp%3A%2F%2Ftracker.openbittorrent.com%3A80","udp%3A%2F%2Fopen.demonii.com%3A1337","udp%3A%2F%2Ftracker.coppersurfer.tk%3A6969","udp%3A%2F%2Fexodus.desync.com%3A6969"],"infoHash":"499f00c97d85b14dedbeaf87b86efd2c2448a961","infoHashBuffer":{"type":"Buffer","data":[73,159,0,201,125,133,177,77,237,190,175,135,184,110,253,44,36,72,169,97]},"announce":[],"urlList":[]}}